<svg width="31" height="13" viewBox="0 0 31 13" fill="none" xmlns="http://www.w3.org/2000/svg">
<path fill-rule="evenodd" clip-rule="evenodd" d="M5.8495 1.68736C5.49309 2.11639 4.92283 2.45478 4.35257 2.40644C4.28129 1.82635 4.56048 1.20999 4.88719 0.829307C5.2436 0.388193 5.86732 0.0739753 6.37224 0.0498047C6.43164 0.65407 6.19998 1.24625 5.8495 1.68736ZM6.3663 2.52125C5.86391 2.49184 5.40551 2.67495 5.03524 2.82285C4.79697 2.91802 4.59519 2.99862 4.44168 2.99862C4.26941 2.99862 4.05931 2.91372 3.82341 2.81838L3.82341 2.81838L3.8234 2.81838C3.5143 2.69347 3.1609 2.55065 2.79031 2.55751C1.94086 2.56959 1.15081 3.05905 0.717179 3.83855C-0.173851 5.39755 0.485511 7.70585 1.34684 8.9748C1.76859 9.60324 2.27351 10.2921 2.93881 10.2679C3.2315 10.2567 3.44205 10.1658 3.65995 10.0718C3.9108 9.96348 4.1714 9.85099 4.5783 9.85099C4.9711 9.85099 5.2203 9.96055 5.45952 10.0657C5.68698 10.1657 5.90541 10.2617 6.22968 10.2558C6.91874 10.2438 7.35238 9.62741 7.77413 8.99898C8.22927 8.32449 8.42928 7.66622 8.45963 7.56633L8.46319 7.55478C8.46246 7.55404 8.45684 7.55142 8.44693 7.54681L8.44692 7.5468C8.29477 7.47595 7.13186 6.93438 7.12071 5.48215C7.10951 4.26321 8.0431 3.64562 8.19006 3.5484L8.19008 3.54839C8.19901 3.54248 8.20504 3.5385 8.20776 3.53642C7.61374 2.6421 6.68707 2.54542 6.3663 2.52125ZM11.1363 10.1894V0.768884H14.6113C16.4052 0.768884 17.6586 2.02576 17.6586 3.86272C17.6586 5.69969 16.3815 6.96865 14.5638 6.96865H12.5738V10.1894H11.1363ZM12.5738 2.00158H14.2311C15.4786 2.00158 16.1914 2.67836 16.1914 3.86876C16.1914 5.05916 15.4786 5.74198 14.2252 5.74198H12.5738V2.00158ZM22.4048 9.0594C22.0247 9.7966 21.1871 10.2619 20.2842 10.2619C18.9476 10.2619 18.015 9.45217 18.015 8.23156C18.015 7.02303 18.9179 6.32812 20.5871 6.22539L22.3811 6.11663V5.59696C22.3811 4.82954 21.888 4.4126 21.0089 4.4126C20.2842 4.4126 19.7555 4.79329 19.6486 5.37338H18.3536C18.3952 4.15276 19.5238 3.26449 21.0505 3.26449C22.6959 3.26449 23.7651 4.14068 23.7651 5.50028V10.1894H22.4345V9.0594H22.4048ZM20.6703 9.144C19.904 9.144 19.4169 8.76935 19.4169 8.1953C19.4169 7.60312 19.8862 7.25869 20.7832 7.2043L22.3811 7.10158V7.63333C22.3811 8.51556 21.6445 9.144 20.6703 9.144ZM28.1787 10.558C27.6025 12.2076 26.9431 12.7515 25.5412 12.7515C25.4343 12.7515 25.0779 12.7394 24.9948 12.7152V11.5852C25.0839 11.5973 25.3036 11.6094 25.4165 11.6094C26.0521 11.6094 26.4085 11.3375 26.6283 10.6305L26.759 10.2135L24.3235 3.35514H25.8264L27.5193 8.92042H27.549L29.242 3.35514H30.7033L28.1787 10.558Z" fill="black"/>
</svg>

