<svg width="48" height="33" viewBox="0 0 48 33" fill="none" xmlns="http://www.w3.org/2000/svg">
<path fill-rule="evenodd" clip-rule="evenodd" d="M21.8798 16.7109L22.0888 15.3839L21.6233 15.3731H19.4004L20.9452 5.58072C20.95 5.55106 20.9656 5.52354 20.9883 5.50396C21.0111 5.48437 21.0402 5.47363 21.0707 5.47363H24.8188C26.0632 5.47363 26.9219 5.73245 27.3701 6.24337C27.5803 6.48305 27.7142 6.73358 27.779 7.00918C27.847 7.29843 27.8481 7.64397 27.7818 8.06548L27.777 8.09614V8.36626L27.9872 8.48531C28.1642 8.57919 28.3048 8.68661 28.4127 8.80959C28.5925 9.01458 28.7088 9.27507 28.7579 9.5838C28.8087 9.90136 28.792 10.2793 28.7088 10.7072C28.6129 11.1993 28.4579 11.628 28.2484 11.9787C28.0559 12.3019 27.8106 12.57 27.5192 12.7776C27.2411 12.975 26.9107 13.1249 26.5371 13.2208C26.175 13.315 25.7622 13.3625 25.3095 13.3625H25.0178C24.8093 13.3625 24.6067 13.4376 24.4476 13.5722C24.2881 13.7096 24.1827 13.8974 24.1503 14.1027L24.1283 14.2222L23.759 16.5612L23.7424 16.647C23.7379 16.6742 23.7303 16.6877 23.7191 16.6969C23.7091 16.7053 23.6948 16.7109 23.6808 16.7109H21.8798" fill="black"/>
<path fill-rule="evenodd" clip-rule="evenodd" d="M28.1871 8.12793C28.176 8.19943 28.1631 8.2725 28.1488 8.34758C27.6545 10.8847 25.9634 11.7612 23.8037 11.7612H22.704C22.4398 11.7612 22.2172 11.9529 22.1761 12.2134L21.4537 16.7949C21.4269 16.966 21.5588 17.1201 21.7313 17.1201H23.6818C23.9127 17.1201 24.1089 16.9524 24.1453 16.7247L24.1644 16.6256L24.5316 14.2959L24.5553 14.1681C24.5912 13.9396 24.7878 13.7717 25.0188 13.7717H25.3104C27.2001 13.7717 28.6794 13.0048 29.1118 10.7852C29.2923 9.85807 29.1989 9.08386 28.721 8.53937C28.5763 8.37522 28.3969 8.23893 28.1871 8.12793" fill="#14376B"/>
<path fill-rule="evenodd" clip-rule="evenodd" d="M27.6697 7.9215C27.5942 7.89945 27.5163 7.87953 27.4363 7.86152C27.356 7.84395 27.2737 7.8284 27.189 7.81475C26.8925 7.76686 26.5676 7.74414 26.2196 7.74414H23.2818C23.2094 7.74414 23.1407 7.76048 23.0793 7.79002C22.9437 7.85514 22.8431 7.98337 22.8187 8.14036L22.1937 12.0977L22.1758 12.213C22.2169 11.9525 22.4395 11.7609 22.7036 11.7609H23.8033C25.9631 11.7609 27.6542 10.8839 28.1484 8.34726C28.1632 8.27218 28.1756 8.19911 28.1867 8.12761C28.0617 8.06125 27.9263 8.00452 27.7804 7.95618C27.7444 7.94421 27.7072 7.93269 27.6697 7.9215" fill="#22284F"/>
<path fill-rule="evenodd" clip-rule="evenodd" d="M22.8192 8.141C22.8436 7.98401 22.9442 7.85578 23.0797 7.7911C23.1416 7.76145 23.2099 7.74511 23.2823 7.74511H26.2201C26.5681 7.74511 26.893 7.76794 27.1895 7.81583C27.2742 7.82937 27.3565 7.84504 27.4368 7.86261C27.5167 7.88051 27.5946 7.90054 27.6702 7.92247C27.7077 7.93366 27.7449 7.9453 27.7812 7.95682C27.9271 8.00516 28.0626 8.06234 28.1876 8.12825C28.3347 7.19067 28.1864 6.5523 27.6794 5.97425C27.1203 5.33778 26.1114 5.06543 24.8203 5.06543H21.0721C20.8084 5.06543 20.5834 5.25711 20.5427 5.51805L18.9815 15.4111C18.9508 15.6068 19.1017 15.7834 19.2992 15.7834H21.6132L22.8192 8.141" fill="black"/>
<path fill-rule="evenodd" clip-rule="evenodd" d="M10.8373 19.4043H8.10452C7.91749 19.4043 7.75844 19.5401 7.72923 19.7248L6.62395 26.7303C6.60201 26.8687 6.70913 26.9932 6.84937 26.9932H8.15399C8.34102 26.9932 8.50007 26.8575 8.52928 26.6725L8.82735 24.7829C8.85611 24.5979 9.0155 24.4621 9.20219 24.4621H10.0673C11.8674 24.4621 12.9063 23.5912 13.1777 21.8656C13.2999 21.1105 13.1829 20.5173 12.8292 20.1019C12.4408 19.6457 11.7519 19.4043 10.8373 19.4043ZM11.1524 21.963C11.003 22.9433 10.2538 22.9433 9.52939 22.9433H9.11694L9.40627 21.1125C9.42351 21.0018 9.51932 20.9204 9.63125 20.9204H9.82029C10.3138 20.9204 10.7793 20.9204 11.0198 21.2016C11.1633 21.3693 11.2072 21.6186 11.1524 21.963Z" fill="black"/>
<path fill-rule="evenodd" clip-rule="evenodd" d="M19.0754 21.8789H17.7667C17.6552 21.8789 17.5589 21.9604 17.5417 22.0711L17.4838 22.437L17.3923 22.3044C17.109 21.8933 16.4772 21.7559 15.8467 21.7559C14.4005 21.7559 13.1654 22.8509 12.9249 24.3869C12.7999 25.153 12.9776 25.8857 13.4124 26.3966C13.8112 26.8664 14.3818 27.0622 15.0607 27.0622C16.2259 27.0622 16.872 26.3132 16.872 26.3132L16.8137 26.6767C16.7917 26.8157 16.8988 26.9403 17.0383 26.9403H18.217C18.4045 26.9403 18.5627 26.8045 18.5923 26.6195L19.2996 22.1418C19.3219 22.0039 19.2152 21.8789 19.0754 21.8789ZM17.2512 24.4252C17.1249 25.1726 16.5316 25.6743 15.7747 25.6743C15.3948 25.6743 15.0911 25.5525 14.896 25.3216C14.7026 25.0924 14.6292 24.766 14.6906 24.4024C14.8086 23.6614 15.4119 23.1433 16.1572 23.1433C16.5288 23.1433 16.8309 23.2668 17.0299 23.4995C17.2292 23.7349 17.3084 24.0633 17.2512 24.4252Z" fill="black"/>
<path fill-rule="evenodd" clip-rule="evenodd" d="M25.9449 21.9912H24.6298C24.5043 21.9912 24.3864 22.0535 24.3154 22.1578L22.5016 24.8287L21.7328 22.262C21.6844 22.1014 21.5362 21.9912 21.3683 21.9912H20.0761C19.919 21.9912 19.81 22.1446 19.8599 22.2924L21.3084 26.542L19.9466 28.4639C19.8395 28.6153 19.9474 28.8235 20.1324 28.8235H21.4459C21.5706 28.8235 21.6872 28.7627 21.7579 28.6605L26.1318 22.3487C26.2366 22.1978 26.129 21.9912 25.9449 21.9912" fill="black"/>
<path fill-rule="evenodd" clip-rule="evenodd" d="M30.3284 19.4043H27.5953C27.4087 19.4043 27.2497 19.5401 27.2204 19.7248L26.1152 26.7303C26.0932 26.8687 26.2003 26.9932 26.3398 26.9932H27.7424C27.8725 26.9932 27.984 26.8982 28.0044 26.7687L28.3181 24.7829C28.3469 24.5979 28.5064 24.4621 28.693 24.4621H29.5577C31.3582 24.4621 32.3967 23.5912 32.6685 21.8656C32.7912 21.1105 32.6733 20.5173 32.3196 20.1019C31.9316 19.6457 31.2431 19.4043 30.3284 19.4043ZM30.6438 21.963C30.4947 22.9433 29.7454 22.9433 29.0206 22.9433H28.6087L28.8984 21.1125C28.9155 21.0018 29.0106 20.9204 29.1229 20.9204H29.312C29.805 20.9204 30.2709 20.9204 30.5115 21.2016C30.655 21.3693 30.6985 21.6186 30.6438 21.963Z" fill="#14376B"/>
<path fill-rule="evenodd" clip-rule="evenodd" d="M38.5658 21.8789H37.2579C37.1457 21.8789 37.0502 21.9604 37.0334 22.0711L36.9754 22.437L36.8835 22.3044C36.6002 21.8933 35.9689 21.7559 35.3383 21.7559C33.8922 21.7559 32.6575 22.8509 32.417 24.3869C32.2923 25.153 32.4693 25.8857 32.904 26.3966C33.3037 26.8664 33.8734 27.0622 34.5523 27.0622C35.7175 27.0622 36.3636 26.3132 36.3636 26.3132L36.3053 26.6767C36.2834 26.8157 36.3904 26.9403 36.5307 26.9403H37.7091C37.8957 26.9403 38.0547 26.8045 38.084 26.6195L38.7916 22.1418C38.8132 22.0039 38.706 21.8789 38.5658 21.8789ZM36.7417 24.4252C36.6162 25.1726 36.022 25.6743 35.2651 25.6743C34.8859 25.6743 34.5815 25.5525 34.3864 25.3216C34.1931 25.0924 34.1203 24.766 34.181 24.4024C34.2997 23.6614 34.9022 23.1433 35.6476 23.1433C36.0192 23.1433 36.3213 23.2668 36.5203 23.4995C36.7204 23.7349 36.7995 24.0633 36.7417 24.4252Z" fill="#14376B"/>
<path fill-rule="evenodd" clip-rule="evenodd" d="M39.9995 19.5969L38.8779 26.7307C38.8559 26.869 38.9629 26.9935 39.1024 26.9935H40.2301C40.4175 26.9935 40.5765 26.8578 40.6052 26.6728L41.7113 19.6676C41.7333 19.5293 41.6262 19.4043 41.4868 19.4043H40.2241C40.1126 19.4046 40.0167 19.4862 39.9995 19.5969" fill="#14376B"/>
</svg>

